<?xml version="1.0" encoding="UTF-8"?>
<svg xmlns="http://www.w3.org/2000/svg"
     xmlns:xlink="http://www.w3.org/1999/xlink"
     width="3753"
     height="3753"
     viewBox="0 0 3753 3753">
    <path fill-rule="nonzero"
          fill="#000"
          fill-opacity="0"
          d="M 0 0 L 0 3752.507812 L 3752.441406 3752.457031 L 3752.449219 0.0585938 L 0 0 L 0 0.0585938 Z M 0 0 " />
    <path fill-rule="nonzero"
          fill="#777"
          fill-opacity="1"
          d="M 1432.859375 1518.238281 C 1432.839844 1518.238281 1432.859375 1518.238281 1432.859375 1518.238281 C 1507.199219 1518.238281 1567.449219 1578.519531 1567.449219 1652.859375 C 1567.449219 1727.191406 1507.179688 1787.460938 1432.839844 1787.460938 C 1358.488281 1787.460938 1298.21875 1727.191406 1298.21875 1652.859375 C 1298.21875 1578.511719 1358.488281 1518.238281 1432.839844 1518.238281 Z M 1432.839844 1436.96875 L 1432.820312 1436.96875 C 1313.589844 1436.96875 1216.960938 1533.621094 1216.960938 1652.859375 C 1216.960938 1772.070312 1313.609375 1868.730469 1432.839844 1868.730469 C 1552.070312 1868.730469 1648.71875 1772.070312 1648.71875 1652.859375 C 1648.710938 1533.628906 1552.109375 1436.96875 1432.878906 1436.96875 Z M 1720.191406 1318.199219 L 1720.191406 1318.238281 L 1763.089844 1385.808594 L 1701.109375 1503.289062 C 1694.058594 1516.648438 1695 1532.839844 1703.570312 1545.289062 L 1820.691406 1715.480469 L 1796.71875 1970.121094 C 1794.941406 1989 1806.449219 2006.589844 1824.449219 2012.519531 C 1828.648438 2013.898438 1832.941406 2014.570312 1837.171875 2014.570312 C 1851.109375 2014.570312 1864.449219 2007.371094 1871.96875 1994.929688 L 2072.550781 1662.601562 C 2079.519531 1651.058594 2080.300781 1636.800781 2074.640625 1624.558594 L 2026.941406 1521.328125 L 2109.351562 1375.429688 C 2116.28125 1363.160156 2116.359375 1348.171875 2109.550781 1335.828125 L 2099.769531 1318.199219 C 2505.410156 1318.230469 2505.429688 1318.230469 2505.429688 1318.230469 C 2505.429688 1318.230469 2505.441406 1318.230469 2505.441406 1318.230469 C 2610.738281 1318.230469 2696.058594 1403.628906 2696.050781 1508.941406 C 2696.050781 1509.230469 2696.058594 2079.929688 2696.058594 2079.929688 C 2593.609375 1977.378906 2483.941406 1867.710938 2483.71875 1867.480469 C 2430.621094 1814.378906 2361.039062 1787.839844 2291.449219 1787.839844 C 2291.441406 1787.839844 2291.441406 1787.839844 2291.441406 1787.839844 C 2291.429688 1787.839844 2291.429688 1787.839844 2291.429688 1787.839844 C 2221.808594 1787.839844 2152.179688 1814.410156 2099.050781 1867.539062 C 2098.898438 1867.691406 2009.820312 1956.808594 1895.628906 2071.011719 L 1895.609375 2071.03125 C 1883.710938 2082.691406 1867.378906 2089.898438 1849.378906 2089.890625 C 1832.371094 2089.890625 1816.75 2083.53125 1805.050781 2072.949219 L 1805.011719 2072.921875 C 1753.289062 2025.851562 1687.898438 2002.398438 1622.511719 2002.398438 C 1622.5 2002.398438 1622.5 2002.398438 1622.5 2002.398438 C 1552.878906 2002.398438 1483.25 2028.980469 1430.109375 2082.109375 C 1429.910156 2082.320312 1085.148438 2427.078125 1085.148438 2427.078125 C 1085.148438 1509.378906 1085.148438 1508.941406 1085.148438 1508.941406 C 1085.148438 1403.570312 1170.558594 1318.160156 1275.921875 1318.160156 Z M 2291.628906 1869.199219 L 2291.679688 1869.199219 C 2340.410156 1869.199219 2389.128906 1887.820312 2426.308594 1925 L 2696.050781 2194.75 C 2696.050781 2486.878906 2696.050781 2487.070312 2696.050781 2487.070312 C 2696.058594 2592.429688 2610.640625 2677.839844 2505.269531 2677.839844 L 1275.929688 2677.878906 C 1187.449219 2677.859375 1113.03125 2617.609375 1091.460938 2535.910156 C 1487.378906 2139.769531 1487.578125 2139.570312 1487.578125 2139.570312 C 1524.828125 2102.320312 1573.660156 2083.691406 1622.480469 2083.691406 C 1622.480469 2083.691406 1622.480469 2083.691406 1622.488281 2083.691406 C 1668.808594 2083.691406 1715.078125 2100.480469 1751.519531 2134 L 1751.539062 2134.019531 C 1777.550781 2157.089844 1811.828125 2171.160156 1849.378906 2171.160156 C 1849.378906 2171.160156 1849.390625 2171.160156 1849.390625 2171.160156 C 1889.839844 2171.160156 1926.53125 2154.910156 1953.140625 2128.5 L 1953.160156 2128.46875 C 2067.320312 2014.199219 2156.378906 1925.140625 2156.511719 1925.011719 C 2193.71875 1887.78125 2242.5 1869.230469 2291.28125 1869.199219 Z M 2031.378906 1236.890625 L 2031.039062 1236.890625 C 2008.589844 1236.890625 1990.398438 1255.089844 1990.398438 1277.53125 L 1990.398438 1277.570312 C 1990.398438 1285.660156 1992.769531 1293.199219 1996.859375 1299.539062 L 2027.429688 1355.210938 L 1945.941406 1499.488281 C 1939.519531 1510.878906 1938.960938 1524.660156 1944.441406 1536.519531 L 1991.820312 1639.070312 L 1894.300781 1800.648438 L 1902.980469 1708.410156 C 1903.878906 1698.921875 1901.410156 1689.410156 1896 1681.570312 L 1784.460938 1519.46875 L 1845.960938 1402.910156 C 1852.75 1390.019531 1852.140625 1374.488281 1844.328125 1362.179688 L 1778.628906 1258.769531 C 1770.769531 1246.390625 1758.25 1236.898438 1742.589844 1236.898438 C 1742.589844 1236.898438 1742.578125 1236.898438 1742.570312 1236.898438 C 1275.789062 1236.929688 1275.789062 1236.929688 1275.789062 1236.929688 C 1125.570312 1236.929688 1003.890625 1358.71875 1003.878906 1508.941406 C 1003.878906 1509.539062 1003.878906 2486.480469 1003.878906 2487.070312 C 1003.878906 2637.308594 1125.679688 2759.113281 1275.929688 2759.117188 L 2505.28125 2759.152344 C 2655.519531 2759.109375 2777.320312 2637.308594 2777.320312 2487.070312 C 2777.320312 2486.488281 2777.320312 1509.519531 2777.320312 1508.941406 C 2777.320312 1358.699219 2655.53125 1236.890625 2505.289062 1236.890625 Z M 2031.378906 1236.890625 " />
</svg>